<svg width="32" height="33" viewBox="0 0 32 33" fill="none" xmlns="http://www.w3.org/2000/svg">
<path d="M18.7129 13.6859L18.7141 13.6831C19.032 12.9281 18.6944 12.0513 17.9375 11.7127C17.1702 11.3694 16.287 11.7346 15.9664 12.4935C15.9662 12.494 15.966 12.4945 15.9658 12.495L13.3016 18.7159C13.3014 18.7165 13.3012 18.717 13.3009 18.7175C12.9653 19.4899 13.3205 20.3714 14.0815 20.6947C14.2683 20.7769 14.4696 20.8157 14.6666 20.8157C15.2418 20.8157 15.803 20.4802 16.0462 19.9127L16.0462 19.9126L18.7129 13.6859ZM3.16663 16.2091C3.16663 9.12521 8.9161 3.37573 16 3.37573C23.0838 3.37573 28.8333 9.12521 28.8333 16.2091C28.8333 23.2929 23.0838 29.0424 16 29.0424C8.9161 29.0424 3.16663 23.2929 3.16663 16.2091ZM11.7268 19.936C12.3088 19.354 12.3088 18.3974 11.7268 17.8155L10.1204 16.2091L11.7268 14.6026C12.3088 14.0207 12.3088 13.0641 11.7268 12.4822C11.1449 11.9003 10.1883 11.9003 9.60641 12.4822L6.93974 15.1488C6.35781 15.7308 6.35781 16.6874 6.93974 17.2693L9.60641 19.936C9.90512 20.2347 10.2878 20.3757 10.6666 20.3757C11.0454 20.3757 11.4281 20.2347 11.7268 19.936ZM22.3935 19.936L25.0602 17.2693C25.6421 16.6874 25.6421 15.7308 25.0602 15.1488L22.3935 12.4822C21.8116 11.9003 20.855 11.9003 20.2731 12.4822C19.6911 13.0641 19.6911 14.0207 20.2731 14.6026L21.8795 16.2091L20.2731 17.8155C19.6911 18.3974 19.6911 19.354 20.2731 19.936C20.5718 20.2347 20.9545 20.3757 21.3333 20.3757C21.7121 20.3757 22.0948 20.2347 22.3935 19.936Z" fill="#9CA3AF" stroke="#9CA3AF"/>
</svg>
