<svg width="64" height="64" viewBox="0 0 64 64" fill="none" xmlns="http://www.w3.org/2000/svg">
<path d="M37.8508 41.9628L37.8516 41.9623L44.2925 37.6512C44.3748 37.5962 44.4716 37.5667 44.5706 37.5667H50.0002H52.3335C52.6148 37.5667 52.8225 37.7931 52.8104 38.0451C52.6296 41.7864 51.4022 44.3922 49.4468 46.0703C47.4828 47.7559 44.7132 48.5667 41.3335 48.5667H31.3335H30.8335V49.0667V56.6667V57.1667H31.3335H38.9335C39.7507 57.1667 40.4335 57.8496 40.4335 58.6667C40.4335 59.4839 39.7507 60.1667 38.9335 60.1667H19.7335C18.9163 60.1667 18.2335 59.4839 18.2335 58.6667C18.2335 57.8496 18.9163 57.1667 19.7335 57.1667H27.3335H27.8335V56.6667V49.0667V48.5667H27.3335H17.3335C13.8101 48.5667 10.9504 47.6858 8.97372 45.8504C7.00375 44.0211 5.8335 41.1714 5.8335 37.0667V22.6667C5.8335 18.562 7.00375 15.7124 8.97372 13.8831C10.9504 12.0477 13.8101 11.1667 17.3335 11.1667H19.0002C19.2763 11.1667 19.5002 11.3906 19.5002 11.6667V14.0001V24.4001C19.5002 28.1165 20.7953 31.4756 23.1933 33.8736C24.4677 35.1481 26.0388 36.1162 27.789 36.7449C28.011 36.8247 28.1836 37.0417 28.2175 37.3128C28.4667 39.3051 29.6296 41.2655 31.4407 42.2257C32.3749 42.7498 33.3921 42.9801 34.4002 42.9801C35.581 42.9801 36.7998 42.6634 37.8508 41.9628Z" fill="#027BBF" stroke="#027BBF"/>
<path d="M50 5.33325H32.6667C28.6933 5.33325 25.7067 7.35992 24.5333 10.6666C24.1867 11.6799 24 12.7999 24 13.9999V24.3999C24 26.9866 24.8533 29.1733 26.3733 30.6933C27.8933 32.2133 30.08 33.0666 32.6667 33.0666V36.7733C32.6667 38.1333 34.2133 38.9599 35.36 38.2133L43.0667 33.0666H50C51.2 33.0666 52.32 32.8799 53.3333 32.5333C56.64 31.3599 58.6667 28.3733 58.6667 24.3999V13.9999C58.6667 8.79992 55.2 5.33325 50 5.33325ZM33.6533 21.3333C32.5333 21.3333 31.6533 20.4266 31.6533 19.3333C31.6533 18.2399 32.5333 17.3333 33.6533 17.3333C34.7733 17.3333 35.6533 18.2399 35.6533 19.3333C35.6533 20.4266 34.7733 21.3333 33.6533 21.3333ZM41.1733 21.3333C40.0533 21.3333 39.1733 20.4266 39.1733 19.3333C39.1733 18.2399 40.08 17.3333 41.1733 17.3333C42.2667 17.3333 43.1733 18.2399 43.1733 19.3333C43.1733 20.4266 42.2667 21.3333 41.1733 21.3333ZM48.6667 21.3333C47.5467 21.3333 46.6667 20.4266 46.6667 19.3333C46.6667 18.2399 47.5733 17.3333 48.6667 17.3333C49.76 17.3333 50.6667 18.2399 50.6667 19.3333C50.6667 20.4266 49.76 21.3333 48.6667 21.3333Z" fill="#027BBF"/>
<path d="M58.6667 13.9999V24.3999C58.6667 28.3733 56.64 31.3599 53.3333 32.5333C52.32 32.8799 51.2 33.0666 50 33.0666H43.0667L35.36 38.2133C34.2133 38.9599 32.6667 38.1333 32.6667 36.7733V33.0666C30.08 33.0666 27.8933 32.2133 26.3733 30.6933C24.8533 29.1733 24 26.9866 24 24.3999V13.9999C24 12.7999 24.1867 11.6799 24.5333 10.6666C25.7067 7.35992 28.6933 5.33325 32.6667 5.33325H50C55.2 5.33325 58.6667 8.79992 58.6667 13.9999Z" fill="#027BBF"/>
</svg>
