<svg width="24" height="25" viewBox="0 0 24 25" fill="none" xmlns="http://www.w3.org/2000/svg">
<path d="M12 2.7749C6.5 2.7749 2 7.2649 2 12.7949C2 17.7949 5.66 21.9449 10.44 22.6949V15.6949H7.9V12.7949H10.44V10.5849C10.44 8.0749 11.93 6.6949 14.22 6.6949C15.31 6.6949 16.45 6.8849 16.45 6.8849V9.3549H15.19C13.95 9.3549 13.56 10.1249 13.56 10.9149V12.7949H16.34L15.89 15.6949H13.56V22.6949C15.9164 22.3227 18.0622 21.1204 19.6099 19.305C21.1576 17.4895 22.0054 15.1805 22 12.7949C22 7.2649 17.5 2.7749 12 2.7749Z" fill="#757575"/>
</svg>
