<svg width="64" height="64" viewBox="0 0 64 64" fill="none" xmlns="http://www.w3.org/2000/svg">
<path d="M17.7288 46.2473C18.2504 49.1952 18.8596 52.1294 19.6646 55.0102C15.1353 52.594 11.4054 48.8446 8.96737 44.3105C11.8487 45.1181 14.7994 45.7456 17.7288 46.2473Z" fill="#027BBF" stroke="#027BBF"/>
<path d="M46.3015 46.2472C49.256 45.7443 52.1728 45.1153 55.051 44.3057C52.6117 48.8701 48.825 52.6238 44.2464 55.0815C45.0872 52.1614 45.8009 49.2161 46.3015 46.2472Z" fill="#027BBF" stroke="#027BBF"/>
<path d="M56.0533 20.56C52.6933 19.5467 49.3066 18.72 45.8666 18.1333C45.3066 14.6933 44.4799 11.28 43.4399 7.94666C48.9599 10.5867 53.4133 15.04 56.0533 20.56Z" fill="#027BBF"/>
<path d="M20.4001 8.23997C19.4401 11.4933 18.7468 14.8 18.1868 18.16C14.7468 18.6933 11.3334 19.5466 7.94678 20.56C10.5334 15.2 14.8268 10.8 20.1334 8.15997C20.2134 8.15997 20.3201 8.23997 20.4001 8.23997Z" fill="#027BBF"/>
<path d="M41.3067 17.5733C35.12 16.88 28.88 16.88 22.6934 17.5733C23.36 13.92 24.2134 10.2666 25.4134 6.74665C25.4667 6.53331 25.44 6.37331 25.4667 6.15998C27.5734 5.65331 29.7334 5.33331 32 5.33331C34.24 5.33331 36.4267 5.65331 38.5067 6.15998C38.5334 6.37331 38.5334 6.53331 38.5867 6.74665C39.7867 10.2933 40.64 13.92 41.3067 17.5733Z" fill="#027BBF"/>
<path d="M17.5735 41.3067C13.8935 40.64 10.2668 39.7867 6.74683 38.5867C6.5335 38.5334 6.3735 38.56 6.16016 38.5334C5.6535 36.4267 5.3335 34.2667 5.3335 32C5.3335 29.76 5.6535 27.5734 6.16016 25.4934C6.3735 25.4667 6.5335 25.4667 6.74683 25.4134C10.2935 24.24 13.8935 23.36 17.5735 22.6934C16.9068 28.88 16.9068 35.12 17.5735 41.3067Z" fill="#027BBF"/>
<path d="M58.6668 32C58.6668 34.2667 58.3468 36.4267 57.8401 38.5334C57.6268 38.56 57.4668 38.5334 57.2534 38.5867C53.7068 39.76 50.0801 40.64 46.4268 41.3067C47.1201 35.12 47.1201 28.88 46.4268 22.6934C50.0801 23.36 53.7334 24.2134 57.2534 25.4134C57.4668 25.4667 57.6268 25.4934 57.8401 25.4934C58.3468 27.6 58.6668 29.76 58.6668 32Z" fill="#027BBF"/>
<path d="M41.3067 46.4266C40.64 50.1066 39.7867 53.7333 38.5867 57.2533C38.5334 57.4666 38.5334 57.6266 38.5067 57.84C36.4267 58.3466 34.24 58.6666 32 58.6666C29.7334 58.6666 27.5734 58.3466 25.4667 57.84C25.44 57.6266 25.4667 57.4666 25.4134 57.2533C24.24 53.7066 23.36 50.1066 22.6934 46.4266C25.7867 46.7733 28.88 47.0133 32 47.0133C35.12 47.0133 38.24 46.7733 41.3067 46.4266Z" fill="#027BBF"/>
<path d="M42.0357 42.0355C35.3661 42.877 28.6342 42.877 21.9646 42.0355C21.1231 35.3659 21.1231 28.634 21.9646 21.9644C28.6342 21.1229 35.3661 21.1229 42.0357 21.9644C42.8772 28.634 42.8772 35.3659 42.0357 42.0355Z" fill="#027BBF"/>
</svg>
