<svg width="64" height="64" viewBox="0 0 64 64" fill="none" xmlns="http://www.w3.org/2000/svg">
<path d="M40.2002 27.7334C40.4224 27.9556 40.7002 28.1445 41.0335 28.3001C41.3669 28.4556 41.7113 28.5334 42.0669 28.5334C42.8224 28.5334 43.4558 28.2778 43.9669 27.7667C44.478 27.2556 44.7335 26.6223 44.7335 25.8667C44.7335 25.5112 44.6558 25.1667 44.5002 24.8334C44.3446 24.5 44.1558 24.2223 43.9335 24L30.2669 10.3334C29.5113 9.57783 28.6113 9.00005 27.5669 8.60005C26.5224 8.20005 25.4446 8.00005 24.3335 8.00005C23.3113 8.00005 22.3446 8.20005 21.4335 8.60005C20.5224 9.00005 19.6891 9.57783 18.9335 10.3334L40.2002 27.7334ZM40.2002 27.7334L32.0002 19.6L40.2002 27.7334ZM18.9424 10.3422L7.67573 21.6755L7.6757 21.6756C6.87675 22.4745 6.26656 23.3621 5.845 24.3383C5.42343 25.3146 5.2127 26.3129 5.2127 27.3334C5.2127 28.3093 5.42339 29.2296 5.84477 30.0946C6.26602 30.9593 6.89797 31.7022 7.74092 32.3233C8.4055 32.8107 9.12502 33.043 9.89984 33.0209C10.6743 32.9988 11.349 32.7002 11.9247 32.1245L24.458 19.5912C25.4827 18.5666 26.7414 18.0542 28.2335 18.0542C29.7256 18.0542 30.9844 18.5666 32.009 19.5912L18.9424 10.3422ZM18.9424 10.3422C19.6969 9.58768 20.529 9.01083 21.4386 8.61149C22.348 8.21221 23.313 8.01255 24.3335 8.01255C25.4431 8.01255 26.5194 8.21226 27.5624 8.61172C28.6053 9.01112 29.5038 9.58796 30.258 10.3422L43.9247 24.0089C44.1457 24.2299 44.3338 24.5064 44.4889 24.8387C44.6437 25.1704 44.721 25.5131 44.721 25.8667C44.721 26.6191 44.4667 27.2492 43.958 27.7579C43.4494 28.2665 42.8193 28.5209 42.0669 28.5209C41.7132 28.5209 41.3706 28.4435 41.0388 28.2887C40.7066 28.1337 40.4301 27.9456 40.209 27.7245L40.209 27.7245L32.009 19.5912L18.9424 10.3422ZM22.858 43.8579L22.858 43.8579C22.5924 44.1236 22.3048 44.3226 21.9953 44.4552C21.686 44.5878 21.3321 44.6542 20.9335 44.6542C20.2259 44.6542 19.6068 44.389 19.0757 43.8579C18.5446 43.3267 18.2794 42.7076 18.2794 42C18.2794 41.6461 18.3457 41.3144 18.4784 41.005C18.611 40.6955 18.81 40.4079 19.0757 40.1422L30.409 28.8089C30.6781 28.5399 30.8127 28.2145 30.8127 27.8334C30.8127 27.4523 30.6781 27.1269 30.409 26.8579C30.1402 26.589 29.826 26.4542 29.4669 26.4542C29.1078 26.4542 28.7935 26.589 28.5247 26.8579L28.5247 26.8579L17.1914 38.2579C16.9703 38.4789 16.705 38.6558 16.3953 38.7886C16.0861 38.9211 15.7101 38.9875 15.2669 38.9875C14.5145 38.9875 13.8844 38.7332 13.3757 38.2245C12.8671 37.7159 12.6127 37.0858 12.6127 36.3334C12.6127 35.9794 12.6791 35.6478 12.8117 35.3383C12.9443 35.0288 13.1434 34.7412 13.409 34.4756L26.4757 21.4089C26.9619 20.9227 27.5694 20.7016 28.2994 20.7459C29.0299 20.7901 29.6381 21.0556 30.1247 21.5422L38.258 29.6756C38.7481 30.1656 39.3272 30.5554 39.9952 30.8449C40.6633 31.1344 41.3317 31.2792 42.0002 31.2792C43.4257 31.2792 44.6732 30.7779 45.7421 29.7758C46.8114 28.7733 47.346 27.4921 47.346 25.9334C47.346 25.3097 47.2346 24.6639 47.0121 23.9961C46.7891 23.3273 46.388 22.7035 45.809 22.1245L36.6757 12.9912C36.1881 12.5036 35.8672 11.9722 35.7123 11.3968C35.5576 10.8224 35.6348 10.2703 35.9443 9.73977C36.3432 9.07492 36.8526 8.58781 37.4725 8.2779C38.0928 7.96773 38.7797 7.81255 39.5335 7.81255C40.4648 7.81255 41.4186 8.03428 42.395 8.4781C43.3714 8.92188 44.259 9.54321 45.058 10.3422C45.058 10.3422 45.058 10.3422 45.058 10.3422L56.3247 21.6755L56.3247 21.6756C57.1236 22.4744 57.7114 23.3619 58.0885 24.3379C58.4657 25.3139 58.6544 26.4457 58.6544 27.7334C58.6544 28.6203 58.4548 29.5186 58.0554 30.4284C57.6561 31.3379 57.0792 32.17 56.3247 32.9245L56.3335 32.9334L56.3247 32.9246L34.1247 55.1912C33.7696 55.5463 33.4601 55.7669 33.1962 55.8549C32.9311 55.9432 32.6214 55.9875 32.2669 55.9875C31.5145 55.9875 30.8844 55.7332 30.3757 55.2245C29.8671 54.7159 29.6127 54.0858 29.6127 53.3334C29.6127 53.0241 29.679 52.7034 29.8118 52.3714C29.9445 52.0397 30.1435 51.7411 30.409 51.4756L41.809 40.0756C42.0781 39.8065 42.2127 39.4811 42.2127 39.1C42.2127 38.719 42.0781 38.3936 41.809 38.1245C41.5398 37.8553 41.2141 37.7318 40.8328 37.7542C40.452 37.7766 40.1269 37.9224 39.858 38.1912L28.5247 49.5245C28.259 49.7902 27.9714 49.9893 27.6619 50.1219C27.3525 50.2545 27.0208 50.3209 26.6669 50.3209C25.9145 50.3209 25.2844 50.0665 24.7757 49.5579C24.2671 49.0492 24.0127 48.4191 24.0127 47.6667C24.0127 47.2234 24.0792 46.8587 24.2115 46.572C24.3443 46.2844 24.5212 46.0301 24.7424 45.8089L36.1424 34.4089C36.4112 34.14 36.546 33.8258 36.546 33.4667C36.546 33.1076 36.4112 32.7934 36.1424 32.5245C35.8735 32.2557 35.5593 32.1209 35.2002 32.1209C34.8411 32.1209 34.5269 32.2557 34.2581 32.5245C34.258 32.5245 34.258 32.5245 34.258 32.5245L22.858 43.8579Z" fill="#027BBF" stroke="#027BBF" stroke-width="0.025"/>
</svg>
