<svg width="24" height="25" viewBox="0 0 24 25" fill="none" xmlns="http://www.w3.org/2000/svg">
<path fill-rule="evenodd" clip-rule="evenodd" d="M5.81141 2.08398C4.62778 2.08398 3.49261 2.55406 2.65549 3.39085C1.81838 4.22765 1.34787 5.36264 1.34741 6.54627V18.4503C1.34741 19.6342 1.81772 20.7696 2.65489 21.6068C3.49205 22.444 4.62749 22.9143 5.81141 22.9143H17.7154C18.899 22.9138 20.034 22.4433 20.8708 21.6062C21.7076 20.7691 22.1777 19.6339 22.1777 18.4503V6.54627C22.1772 5.36294 21.707 4.2282 20.8702 3.39146C20.0335 2.55472 18.8987 2.08444 17.7154 2.08398H5.81141ZM18.9994 6.55313C18.9994 6.89412 18.864 7.22115 18.6228 7.46226C18.3817 7.70338 18.0547 7.83884 17.7137 7.83884C17.3727 7.83884 17.0457 7.70338 16.8046 7.46226C16.5634 7.22115 16.428 6.89412 16.428 6.55313C16.428 6.21213 16.5634 5.88511 16.8046 5.64399C17.0457 5.40287 17.3727 5.26741 17.7137 5.26741C18.0547 5.26741 18.3817 5.40287 18.6228 5.64399C18.864 5.88511 18.9994 6.21213 18.9994 6.55313ZM11.7651 8.93256C10.8194 8.93256 9.91249 9.30823 9.24379 9.97693C8.57509 10.6456 8.19941 11.5526 8.19941 12.4983C8.19941 13.444 8.57509 14.3509 9.24379 15.0196C9.91249 15.6883 10.8194 16.064 11.7651 16.064C12.7108 16.064 13.6178 15.6883 14.2865 15.0196C14.9552 14.3509 15.3308 13.444 15.3308 12.4983C15.3308 11.5526 14.9552 10.6456 14.2865 9.97693C13.6178 9.30823 12.7108 8.93256 11.7651 8.93256ZM6.48341 12.4983C6.48341 11.0979 7.0397 9.75494 8.02989 8.76475C9.02008 7.77455 10.3631 7.21827 11.7634 7.21827C13.1638 7.21827 14.5067 7.77455 15.4969 8.76475C16.4871 9.75494 17.0434 11.0979 17.0434 12.4983C17.0434 13.8986 16.4871 15.2416 15.4969 16.2318C14.5067 17.222 13.1638 17.7783 11.7634 17.7783C10.3631 17.7783 9.02008 17.222 8.02989 16.2318C7.0397 15.2416 6.48341 13.8986 6.48341 12.4983Z" fill="#757575"/>
</svg>
