<svg width="24" height="25" viewBox="0 0 24 25" fill="none" xmlns="http://www.w3.org/2000/svg">
<path d="M20.4696 2.735H3.52957C3.33915 2.73236 3.15007 2.76725 2.97314 2.83769C2.7962 2.90812 2.63487 3.01272 2.49837 3.14552C2.36186 3.27831 2.25285 3.43669 2.17756 3.61161C2.10227 3.78654 2.06218 3.97458 2.05957 4.165V21.305C2.06218 21.4954 2.10227 21.6835 2.17756 21.8584C2.25285 22.0333 2.36186 22.1917 2.49837 22.3245C2.63487 22.4573 2.7962 22.5619 2.97314 22.6323C3.15007 22.7028 3.33915 22.7376 3.52957 22.735H20.4696C20.66 22.7376 20.8491 22.7028 21.026 22.6323C21.2029 22.5619 21.3643 22.4573 21.5008 22.3245C21.6373 22.1917 21.7463 22.0333 21.8216 21.8584C21.8969 21.6835 21.937 21.4954 21.9396 21.305V4.165C21.937 3.97458 21.8969 3.78654 21.8216 3.61161C21.7463 3.43669 21.6373 3.27831 21.5008 3.14552C21.3643 3.01272 21.2029 2.90812 21.026 2.83769C20.8491 2.76725 20.66 2.73236 20.4696 2.735ZM8.08957 19.475H5.08957V10.475H8.08957V19.475ZM6.58957 9.215C6.17583 9.215 5.77904 9.05065 5.48648 8.75809C5.19393 8.46553 5.02957 8.06874 5.02957 7.655C5.02957 7.24127 5.19393 6.84447 5.48648 6.55192C5.77904 6.25936 6.17583 6.095 6.58957 6.095C6.80927 6.07009 7.03175 6.09186 7.24245 6.15889C7.45314 6.22592 7.64731 6.33669 7.81223 6.48396C7.97715 6.63124 8.1091 6.81168 8.19944 7.01348C8.28979 7.21529 8.33649 7.4339 8.33649 7.655C8.33649 7.87611 8.28979 8.09472 8.19944 8.29652C8.1091 8.49832 7.97715 8.67877 7.81223 8.82604C7.64731 8.97331 7.45314 9.08409 7.24245 9.15112C7.03175 9.21815 6.80927 9.23992 6.58957 9.215ZM18.9096 19.475H15.9096V14.645C15.9096 13.435 15.4796 12.645 14.3896 12.645C14.0522 12.6475 13.7238 12.7533 13.4484 12.9482C13.1731 13.1431 12.9641 13.4177 12.8496 13.735C12.7713 13.97 12.7374 14.2176 12.7496 14.465V19.465H9.74957V10.465H12.7496V11.735C13.0221 11.2621 13.4185 10.8725 13.896 10.6082C14.3735 10.3439 14.9141 10.2149 15.4596 10.235C17.4596 10.235 18.9096 11.525 18.9096 14.295V19.475Z" fill="#757575"/>
</svg>
