<svg width="32" height="33" viewBox="0 0 32 33" fill="none" xmlns="http://www.w3.org/2000/svg">
<path d="M8.09589 8.7605L8.10562 8.75967L8.11531 8.75846C8.40743 8.72194 8.7184 8.70898 9.05329 8.70898H17.5866C19.6358 8.70898 21.083 9.22251 22.0214 10.1609C22.9598 11.0992 23.4733 12.5465 23.4733 14.5957V19.929C23.4733 20.2639 23.4603 20.5748 23.4238 20.867L23.4226 20.8767L23.4218 20.8865C23.2762 22.5959 22.7083 23.8032 21.7798 24.5911C20.8446 25.3846 19.47 25.8156 17.5866 25.8156H17.0533C16.5626 25.8156 16.0944 26.0497 15.8 26.4423L14.2 28.5756L14.1993 28.5766C13.9253 28.9436 13.6019 29.0857 13.32 29.0857C13.038 29.0857 12.7146 28.9436 12.4406 28.5766L12.44 28.5757L10.84 26.4423L10.84 26.4423L10.8371 26.4386C10.6921 26.2489 10.4846 26.0992 10.2838 25.9977C10.0834 25.8964 9.83509 25.8156 9.58663 25.8156H9.05329C6.93483 25.8156 5.50869 25.5446 4.59384 24.7457C3.69578 23.9615 3.16663 22.5526 3.16663 19.929V14.5957C3.16663 12.7131 3.60059 11.3383 4.3959 10.4028C5.18575 9.47379 6.3935 8.90606 8.09589 8.7605ZM6.83329 17.5423C6.83329 18.5485 7.64056 19.3757 8.66663 19.3757C9.6761 19.3757 10.5 18.5518 10.5 17.5423C10.5 16.5328 9.6761 15.709 8.66663 15.709C7.65715 15.709 6.83329 16.5328 6.83329 17.5423ZM11.4866 17.5423C11.4866 18.5485 12.2939 19.3757 13.32 19.3757C14.346 19.3757 15.1533 18.5485 15.1533 17.5423C15.1533 16.5328 14.3294 15.709 13.32 15.709C12.3105 15.709 11.4866 16.5328 11.4866 17.5423ZM16.1533 17.5423C16.1533 18.5485 16.9606 19.3757 17.9866 19.3757C18.9961 19.3757 19.82 18.5518 19.82 17.5423C19.82 16.5328 18.9961 15.709 17.9866 15.709C16.9772 15.709 16.1533 16.5328 16.1533 17.5423Z" fill="#9CA3AF" stroke="#9CA3AF"/>
<path d="M29.3067 9.2624V14.5957C29.3067 17.2624 28.48 19.0757 26.8267 20.0757C26.4267 20.3157 25.96 19.9957 25.96 19.5291L25.9734 14.5957C25.9734 9.2624 22.92 6.20907 17.5867 6.20907L9.46671 6.2224C9.00004 6.2224 8.68004 5.75573 8.92004 5.35573C9.92004 3.7024 11.7334 2.87573 14.3867 2.87573H22.92C27.1734 2.87573 29.3067 5.00907 29.3067 9.2624Z" fill="#9CA3AF"/>
</svg>
