<svg width="64" height="64" viewBox="0 0 64 64" fill="none" xmlns="http://www.w3.org/2000/svg">
<path d="M55.4477 28.5615L55.4705 28.9655L55.8703 29.0274C57.5197 29.283 58.7802 30.7263 58.7802 32.4533V35.12C58.7802 37.0572 57.2174 38.62 55.2802 38.62H52.6135C50.6764 38.62 49.1135 37.0572 49.1135 35.12V32.4533C49.1135 30.7317 50.3697 29.307 52.0302 29.0263L52.4763 28.9509L52.4457 28.4995C51.8705 20.0084 45.6536 12.9143 37.3253 11.2431L36.8729 11.1523L36.7461 11.596C36.3235 13.075 34.9897 14.1667 33.3869 14.1667H30.7202C29.1138 14.1667 27.7604 13.0726 27.3635 11.5783L27.2433 11.126L26.784 11.216C18.4023 12.8595 12.1299 19.9533 11.5547 28.4998L11.5243 28.951L11.9702 29.0263C13.6307 29.307 14.8869 30.7317 14.8869 32.4533V35.12C14.8869 37.0572 13.3241 38.62 11.3869 38.62H8.72021C6.78302 38.62 5.22021 37.0572 5.22021 35.12V32.4533C5.22021 30.7317 6.4764 29.307 8.13687 29.0263L8.5304 28.9598L8.55276 28.5613C9.12638 18.3406 16.7139 9.84168 26.8283 8.17333L27.2098 8.1104L27.2448 7.72527C27.4092 5.91705 28.8844 4.5 30.7202 4.5H33.3869C35.2235 4.5 36.7213 5.94345 36.8617 7.74551L36.892 8.13386L37.2759 8.19951C47.3389 9.92012 54.8741 18.3935 55.4477 28.5615Z" fill="#027BBF" stroke="#027BBF"/>
<path d="M42.0534 44.1333L37.68 48H26.3467L21.9734 44.1333C19.44 42.0533 19.44 40.4533 21.36 38L29.0667 28.24C29.6 27.5733 30.2134 27.12 30.9067 26.88C31.6267 26.64 32.4 26.64 33.1467 26.88C33.8134 27.12 34.4267 27.5733 34.9867 28.24L42.6667 37.9733C44.6134 40.4267 44.5067 41.9467 42.0534 44.1333Z" fill="#027BBF"/>
<path d="M35.5201 58.6667H28.6135C26.1601 58.6667 24.3201 56.6667 24.8001 54.5334L25.6268 50.8267C25.7868 50.08 26.4535 49.5734 27.2001 49.5734H36.9335C37.6801 49.5734 38.3201 50.08 38.5068 50.8267L39.3335 54.5334C39.8401 56.8 38.1335 58.6667 35.5201 58.6667Z" fill="#027BBF"/>
</svg>
