<svg width="32" height="33" viewBox="0 0 32 33" fill="none" xmlns="http://www.w3.org/2000/svg">
<path d="M27.4741 14.5038L27.4969 14.9078L27.8968 14.9698C28.5995 15.0786 29.14 15.6953 29.14 16.4356V17.769C29.14 18.5995 28.4705 19.269 27.64 19.269H26.3067C25.4761 19.269 24.8067 18.5995 24.8067 17.769V16.4356C24.8067 15.7007 25.3428 15.0893 26.0566 14.9687L26.5028 14.8933L26.4722 14.4419C26.177 10.084 22.9867 6.44324 18.7117 5.58542L18.2593 5.49465L18.1326 5.93829C17.95 6.57733 17.3762 7.04232 16.6933 7.04232H15.36C14.6735 7.04232 14.0935 6.57488 13.9232 5.93396L13.8031 5.4816L13.3438 5.57166C9.04202 6.41514 5.82302 10.0556 5.52778 14.4421L5.49741 14.8933L5.94333 14.9687C6.65714 15.0893 7.19332 15.7007 7.19332 16.4356V17.769C7.19332 18.5995 6.52384 19.269 5.69332 19.269H4.35999C3.52946 19.269 2.85999 18.5995 2.85999 17.769V16.4356C2.85999 15.7007 3.39617 15.0893 4.10998 14.9687L4.5035 14.9021L4.52587 14.5037C4.80615 9.50956 8.51367 5.35733 13.4547 4.54232L13.8363 4.47938L13.8713 4.09425C13.9423 3.31271 14.5775 2.70898 15.36 2.70898H16.6933C17.4766 2.70898 18.1211 3.32577 18.1815 4.10116L18.2118 4.48951L18.5957 4.55517C23.512 5.39578 27.1939 9.53579 27.4741 14.5038Z" fill="#9CA3AF" stroke="#9CA3AF"/>
<path d="M21.0267 22.2757L18.84 24.2091H13.1734L10.9867 22.2757C9.72002 21.2357 9.72002 20.4357 10.68 19.2091L14.5334 14.3291C14.8 13.9957 15.1067 13.7691 15.4534 13.6491C15.8134 13.5291 16.2 13.5291 16.5734 13.6491C16.9067 13.7691 17.2134 13.9957 17.4934 14.3291L21.3334 19.1957C22.3067 20.4224 22.2534 21.1824 21.0267 22.2757Z" fill="#9CA3AF"/>
<path d="M12.8878 27.5856L12.888 27.5847L13.3013 25.7314L13.3014 25.7314L13.3022 25.7273C13.3304 25.596 13.4504 25.4958 13.6 25.4958H18.4667C18.6017 25.4958 18.7261 25.5838 18.767 25.7388L19.1787 27.5847L19.1787 27.5849C19.2705 27.9956 19.1618 28.3441 18.9304 28.5957C18.6937 28.8529 18.2951 29.0425 17.76 29.0425H14.3067C13.3237 29.0425 12.7341 28.2689 12.8878 27.5856Z" fill="#9CA3AF" stroke="#9CA3AF"/>
</svg>
