<svg width="64" height="64" viewBox="0 0 64 64" fill="none" xmlns="http://www.w3.org/2000/svg">
<path d="M21.3275 21.3256L21.3245 21.3286C19.0352 23.6455 17.5737 26.5973 17.1053 29.8752C16.9078 31.2277 17.8519 32.4951 19.1623 32.6789C19.3151 32.7135 19.4379 32.7134 19.536 32.7134L19.5468 32.7134C20.7747 32.7134 21.8456 31.8178 22.0152 30.5774C22.3475 28.3577 23.315 26.379 24.8337 24.8603C27.8843 21.8096 32.3977 21.1244 36.1132 22.8067H36.0002C34.6307 22.8067 33.5002 23.9372 33.5002 25.3067C33.5002 26.6762 34.6307 27.8067 36.0002 27.8067H43.1202C44.4896 27.8067 45.6202 26.6762 45.6202 25.3067V18.1867C45.6202 16.8172 44.4896 15.6867 43.1202 15.6867C41.7507 15.6867 40.6202 16.8172 40.6202 18.1867V19.7136C34.7563 15.5714 26.5964 16.083 21.3275 21.3256ZM44.7926 31.2653L44.7909 31.2651C43.3896 31.0649 42.1577 32.037 41.9589 33.3937C41.6269 35.6144 40.6592 37.5939 39.1399 39.1132C36.0893 42.1638 31.576 42.849 27.8604 41.1667H27.9735C29.343 41.1667 30.4735 40.0362 30.4735 38.6667C30.4735 37.2972 29.343 36.1667 27.9735 36.1667H20.8535C19.484 36.1667 18.3535 37.2972 18.3535 38.6667V45.7867C18.3535 47.1562 19.484 48.2867 20.8535 48.2867C22.223 48.2867 23.3535 47.1562 23.3535 45.7867V44.2862C25.9375 46.1172 28.9548 47.0867 32.0002 47.0867C35.8598 47.0867 39.7223 45.625 42.6737 42.6736C44.9662 40.3812 46.4263 37.4283 46.9214 34.1003L46.9216 34.1003L46.9232 34.0872C47.0882 32.7336 46.1636 31.4659 44.7926 31.2653ZM5.8335 32C5.8335 17.5562 17.5563 5.83337 32.0002 5.83337C46.444 5.83337 58.1668 17.5562 58.1668 32C58.1668 46.4439 46.444 58.1667 32.0002 58.1667C17.5563 58.1667 5.8335 46.4439 5.8335 32Z" fill="#027BBF" stroke="#027BBF"/>
</svg>
