<svg width="32" height="33" viewBox="0 0 32 33" fill="none" xmlns="http://www.w3.org/2000/svg">
<path d="M8.64895 23.5491C8.86863 24.7737 9.12041 25.9959 9.43536 27.2031C7.61613 26.1194 6.08823 24.5855 4.99717 22.7625C6.20461 23.0794 7.43061 23.3364 8.64895 23.5491Z" fill="#9CA3AF" stroke="#9CA3AF"/>
<path d="M23.3673 23.5489C24.5945 23.3357 25.81 23.0781 27.013 22.7606C25.919 24.5941 24.3698 26.1326 22.5285 27.2327C22.8637 26.0149 23.1516 24.7867 23.3673 23.5489Z" fill="#9CA3AF" stroke="#9CA3AF"/>
<path d="M28.0266 10.489C26.3466 9.98237 24.6533 9.56904 22.9333 9.27571C22.6533 7.55571 22.24 5.84904 21.72 4.18237C24.48 5.50237 26.7066 7.72904 28.0266 10.489Z" fill="#9CA3AF"/>
<path d="M8.66026 8.85249C7.42187 9.0601 6.19344 9.34613 4.97614 9.68067C6.07424 7.84266 7.60924 6.29569 9.43844 5.20195C9.12301 6.40782 8.87233 7.62514 8.66026 8.85249Z" fill="#9CA3AF" stroke="#9CA3AF"/>
<path d="M20.0373 8.42899C17.3514 8.17131 14.6485 8.17131 11.9626 8.429C12.2734 6.83964 12.6617 5.26398 13.1799 3.74374L13.1867 3.72395L13.1918 3.70367C13.1924 3.70122 13.193 3.69878 13.1936 3.69635C14.1069 3.49664 15.0355 3.37573 16 3.37573C16.957 3.37573 17.8984 3.49774 18.807 3.69864C18.8074 3.70032 18.8079 3.70199 18.8083 3.70367L18.8132 3.72339L18.8197 3.74265C19.3383 5.27542 19.7266 6.84261 20.0373 8.42899Z" fill="#9CA3AF" stroke="#9CA3AF"/>
<path d="M8.22267 12.1709C7.97468 14.8575 7.9747 17.5611 8.22272 20.2477C6.62513 19.9367 5.05742 19.5482 3.53469 19.0291L3.5149 19.0223L3.49462 19.0173C3.49217 19.0166 3.48974 19.016 3.48731 19.0155C3.2876 18.1021 3.16669 17.1735 3.16669 16.209C3.16669 15.252 3.2887 14.3106 3.48959 13.402C3.49127 13.4016 3.49295 13.4012 3.49462 13.4007L3.5127 13.3962L3.5304 13.3904C5.06889 12.8814 6.62969 12.4837 8.22267 12.1709Z" fill="#9CA3AF" stroke="#9CA3AF"/>
<path d="M29.3333 16.209C29.3333 17.3423 29.1733 18.4223 28.92 19.4757C28.8133 19.489 28.7333 19.4757 28.6267 19.5023C26.8533 20.089 25.04 20.529 23.2133 20.8623C23.56 17.769 23.56 14.649 23.2133 11.5557C25.04 11.889 26.8667 12.3157 28.6267 12.9157C28.7333 12.9423 28.8133 12.9557 28.92 12.9557C29.1733 14.009 29.3333 15.089 29.3333 16.209Z" fill="#9CA3AF"/>
<path d="M20.6533 23.4224C20.32 25.2624 19.8933 27.0757 19.2933 28.8357C19.2667 28.9424 19.2667 29.0224 19.2533 29.129C18.2133 29.3824 17.12 29.5424 16 29.5424C14.8667 29.5424 13.7867 29.3824 12.7333 29.129C12.72 29.0224 12.7333 28.9424 12.7067 28.8357C12.12 27.0624 11.68 25.2624 11.3467 23.4224C12.8933 23.5957 14.44 23.7157 16 23.7157C17.56 23.7157 19.12 23.5957 20.6533 23.4224Z" fill="#9CA3AF"/>
<path d="M21.0178 21.2268C17.683 21.6476 14.317 21.6476 10.9822 21.2268C10.5615 17.892 10.5615 14.5261 10.9822 11.1913C14.317 10.7705 17.683 10.7705 21.0178 11.1913C21.4385 14.5261 21.4385 17.892 21.0178 21.2268Z" fill="#9CA3AF"/>
</svg>
